<?xml version="1.0" standalone="no"?>
<!DOCTYPE svg PUBLIC "-//W3C//DTD SVG 20010904//EN"
 "http://www.w3.org/TR/2001/REC-SVG-20010904/DTD/svg10.dtd">
<svg version="1.0" xmlns="http://www.w3.org/2000/svg"
 width="512.000000pt" height="512.000000pt" viewBox="0 0 512.000000 512.000000"
 preserveAspectRatio="xMidYMid meet">
<metadata>
Created by potrace 1.16, written by Peter Selinger 2001-2019
</metadata>
<g transform="translate(0.000000,512.000000) scale(0.100000,-0.100000)"
fill="#4c75a3" stroke="none">
<path d="M2325 5035 c-539 -94 -969 -459 -1139 -966 -60 -180 -71 -258 -70
-484 0 -176 4 -215 27 -325 117 -554 454 -1120 1009 -1695 138 -143 390 -375
408 -375 17 0 266 228 395 361 829 855 1187 1709 1010 2409 -144 572 -616 995
-1202 1080 -94 13 -350 11 -438 -5z m385 -882 c90 -25 185 -80 254 -149 223
-223 223 -576 1 -800 -183 -184 -440 -225 -669 -107 -93 48 -199 155 -243 243
-113 227 -73 486 102 663 147 149 356 205 555 150z"/>
<path d="M548 1207 c-296 -606 -540 -1110 -544 -1120 -6 -16 120 -17 2555 -17
1409 0 2561 3 2561 8 0 4 -244 506 -543 1117 l-542 1110 -126 3 -125 3 -102
-154 c-56 -85 -102 -157 -102 -161 0 -3 57 -6 128 -6 l127 0 392 -803 391
-802 -1029 -3 c-566 -1 -1492 -1 -2058 0 l-1030 3 392 803 392 802 127 0 c71
0 128 3 128 6 0 4 -46 76 -102 160 l-102 154 -126 0 -125 -1 -537 -1102z"/>
</g>
</svg>
